@startuml
title System Monitor Definition Class Diagram
namespace eros {
    enum Level::Type
}
namespace eros_nodes::SystemMonitor {
    enum eros_window::WindowCommandType #LimeGreen {
        UNKNOWN
        VIEW_DIAGNOSTICS_NODE
        VIEW_DIAGNOSTICS_SYSTEM
        END_OF_LIST
    }
    enum eros_window::Color #LimeGreen {
        UNKNOWN
        NO_COLOR
        RED_COLOR
        YELLOW_COLOR
        GREEN_COLOR
        BLUE_COLOR
        GRAY_COLOR
        PURPLE_COLOR
        END_OF_LIST
    }
    struct eros_window::WindowCommand #LimeGreen {
        +eros_window::WindowCommand() : type(eros_window::WindowCommandType::UNKNOWN)
        +eros_window::WindowCommandType type
        +string option
    }
    eros_window::WindowCommand --> eros_window::WindowCommandType
    struct ScreenCoordinatePerc #LimeGreen {
        +ScreenCoordinatePerc(double start_x, double start_y, double width, double height)
        +double start_x_perc
        +double start_y_perc
        +double width_perc
        +double height_perc

    }
    struct eros_window::ScreenCoordinatePixel #LimeGreen {
        +eros_window::ScreenCoordinatePixel(double start_x, double start_y, double width, double height)
        +uint16_t start_x_pix
        +uint16_t start_y_pix
        +uint16_t width_pix
        +uint16_t height_pix
    }
    struct eros_window::Field #LimeGreen {
        +eros_window::Field(string text, uint16_t width)
        +string text
        +size_t width

    }
    struct eros_window::MessageText #LimeGreen {
        eros_window::MessageText(string text, Level::Type level)
        eros_window::MessageText() : text(""), level(Level::Type::DEBUG)
        string text
        Level::Type level
    }
    eros_window::MessageText -left-> Level::Type
    struct eros_window::KeyEventContainer #LimeGreen {
        +eros_window::WindowCommand command
        +eros_window::MessageText message
    }
    eros_window::KeyEventContainer --> eros_window::WindowCommand
    eros_window::KeyEventContainer --> eros_window::MessageText
}
@enduml